<svg width="100%" height="100%" viewBox="0 0 46 46" fill="none" xmlns="http://www.w3.org/2000/svg">
<path d="M15.8333 37.2547V9.13183C15.8333 7.96887 15.8333 7.38739 16.0426 6.91577C16.2271 6.50006 16.5241 6.14557 16.8994 5.89326C17.3252 5.60703 17.8925 5.51144 19.0273 5.32026L40.0495 1.77811C41.5805 1.52011 42.3462 1.39112 42.9429 1.61517C43.4666 1.81178 43.9054 2.18766 44.1832 2.67747C44.5 3.23565 44.5 4.02033 44.5 5.58969V32.4245M15.8333 37.2547C15.8333 41.256 12.6247 44.5 8.66667 44.5C4.70864 44.5 1.5 41.256 1.5 37.2547C1.5 33.2531 4.70864 30.0094 8.66667 30.0094C12.6247 30.0094 15.8333 33.2531 15.8333 37.2547ZM44.5 32.4245C44.5 36.4259 41.2915 39.6698 37.3333 39.6698C33.3752 39.6698 30.1667 36.4259 30.1667 32.4245C30.1667 28.423 33.3752 25.1792 37.3333 25.1792C41.2915 25.1792 44.5 28.423 44.5 32.4245Z" stroke="black" stroke-width="3" stroke-linecap="round" stroke-linejoin="round"/>
</svg>