<?xml version="1.0" encoding="UTF-8"?>
<svg id="Layer_2" data-name="Layer 2" xmlns="http://www.w3.org/2000/svg" viewBox="0 0 77.55 94.56">
  <defs>
    <style>
      .cls-1 {
        fill: #fff;
        stroke-width: 0px;
      }
    </style>
  </defs>
  <g id="Layer_1-2" data-name="Layer 1">
    <polygon class="cls-1" points="21.48 0 40.34 45.39 6.63 45.29 29 42.19 21.48 0"/>
    <polygon class="cls-1" points="34.96 94.56 15.43 48.01 51.13 48.01 27.48 51.41 34.96 94.56"/>
    <g>
      <path class="cls-1" d="m51.67,54.57l-3.02,11.29h-2.13l-2.25-8.3-2.04,8.3h-2.09l-3.08-11.29h2.16l2.18,8.23,2.03-8.23h2.06l2.25,8.23,2.14-8.23h1.79Z"/>
      <path class="cls-1" d="m60.41,65.86h-7.33v-11.29h7.26v1.68h-5.22v3.06h4.2v1.64h-4.2v3.16h5.3v1.75Z"/>
      <path class="cls-1" d="m69.11,65.86h-6.94v-11.29h2.14v9.44h4.8v1.84Z"/>
      <path class="cls-1" d="m77.55,65.86h-6.94v-11.29h2.14v9.44h4.8v1.84Z"/>
    </g>
    <g>
      <path class="cls-1" d="m7.8,38.32H0v-12h7.72v1.78H2.16v3.25h4.46v1.74H2.16v3.36h5.63v1.86Z"/>
      <path class="cls-1" d="m17.04,38.32h-7.38v-12h2.28v10.04h5.11v1.96Z"/>
    </g>
  </g>
</svg>