<svg width="35" height="35" viewBox="0 0 33 33" fill="none" xmlns="http://www.w3.org/2000/svg">
	<path d="M10.1619 19.3237C10.1619 19.3237 12.4523 22.3777 16.2698 22.3777C20.0872 22.3777 22.3777 19.3237 22.3777 19.3237M23.9046 12.0553C23.3015 12.7959 22.4769 13.2158 21.6142 13.2158C20.7514 13.2158 19.9498 12.7959 19.3237 12.0553M13.2158 12.0553C12.6126 12.7959 11.7881 13.2158 10.9253 13.2158C10.0626 13.2158 9.26094 12.7959 8.63488 12.0553M31.5395 16.2698C31.5395 24.7029 24.7029 31.5395 16.2698 31.5395C7.8365 31.5395 1 24.7029 1 16.2698C1 7.8365 7.8365 1 16.2698 1C24.7029 1 31.5395 7.8365 31.5395 16.2698Z" stroke="black" stroke-width="2" stroke-linecap="round" stroke-linejoin="round"/>
</svg>
